<svg width="64" height="64" viewBox="0 0 64 64" fill="none" xmlns="http://www.w3.org/2000/svg">
<rect width="64" height="64" rx="32" fill="#F0EEFC"/>
<rect x="8" y="8" width="48" height="48" rx="24" fill="#433FB5"/>
<path fill-rule="evenodd" clip-rule="evenodd" d="M20.333 23.834C20.333 21.901 21.9 20.334 23.833 20.334H40.1663C42.0993 20.334 43.6663 21.901 43.6663 23.834V33.459H20.333V23.834ZM20.333 35.209H43.6663V35.5007C43.6663 37.4336 42.0993 39.0007 40.1663 39.0007H32.8747V41.9173H35.4997C35.9829 41.9173 36.3747 42.3091 36.3747 42.7923C36.3747 43.2756 35.9829 43.6673 35.4997 43.6673H28.4997C28.0164 43.6673 27.6247 43.2756 27.6247 42.7923C27.6247 42.3091 28.0164 41.9173 28.4997 41.9173H31.1247V39.0007H23.833C21.9 39.0007 20.333 37.4336 20.333 35.5007V35.209Z" fill="#F0EEFC"/>
</svg>
