<svg width="64" height="64" viewBox="0 0 64 64" fill="none" xmlns="http://www.w3.org/2000/svg">
<rect width="64" height="64" rx="32" fill="#F0EEFC"/>
<rect x="8" y="8" width="48" height="48" rx="24" fill="#433FB5"/>
<path fill-rule="evenodd" clip-rule="evenodd" d="M31.0001 21H33.4446C39.5198 21 44.4447 25.9249 44.4447 32C44.4447 38.0751 39.5198 43 33.4446 43H24.8889C22.1889 43 20 40.8112 20 38.1111V32C20 25.9249 24.9249 21 31.0001 21ZM32.2224 33.2222C32.8974 33.2222 33.4446 32.675 33.4446 32C33.4446 31.325 32.8974 30.7778 32.2224 30.7778C31.5473 30.7778 31.0001 31.325 31.0001 32C31.0001 32.675 31.5473 33.2222 32.2224 33.2222ZM38.3336 32C38.3336 32.675 37.7863 33.2222 37.1113 33.2222C36.4363 33.2222 35.8891 32.675 35.8891 32C35.8891 31.325 36.4363 30.7778 37.1113 30.7778C37.7863 30.7778 38.3336 31.325 38.3336 32ZM27.3334 33.2222C28.0084 33.2222 28.5557 32.675 28.5557 32C28.5557 31.325 28.0084 30.7778 27.3334 30.7778C26.6584 30.7778 26.1112 31.325 26.1112 32C26.1112 32.675 26.6584 33.2222 27.3334 33.2222Z" fill="#F0EEFC"/>
</svg>
