<svg width="64" height="64" viewBox="0 0 64 64" fill="none" xmlns="http://www.w3.org/2000/svg">
<rect width="64" height="64" rx="32" fill="#F0EEFC"/>
<rect x="8" y="8" width="48" height="48" rx="24" fill="#433FB5"/>
<path fill-rule="evenodd" clip-rule="evenodd" d="M31.9057 30.6667C34.8512 30.6667 37.239 28.2789 37.239 25.3333C37.239 22.3878 34.8512 20 31.9057 20C28.9601 20 26.5723 22.3878 26.5723 25.3333C26.5723 28.2789 28.9601 30.6667 31.9057 30.6667ZM31.9057 43.9997C37.0604 43.9997 41.2391 41.6119 41.2391 38.6663C41.2391 35.7208 37.0604 33.333 31.9057 33.333C26.751 33.333 22.5723 35.7208 22.5723 38.6663C22.5723 41.6119 26.751 43.9997 31.9057 43.9997Z" fill="#F0EEFC"/>
<path d="M24.5393 23.228C24.1138 23.0803 23.6562 23 23.1797 23C20.9139 23 19.0771 24.8152 19.0771 27.0544C19.0771 29.2937 20.9139 31.1089 23.1797 31.1089C24.2064 31.1089 25.145 30.7362 25.8646 30.1201C24.7951 28.8873 24.149 27.2853 24.149 25.534C24.149 24.7264 24.2864 23.9505 24.5393 23.228Z" fill="#F0EEFC"/>
<path d="M24.2718 33.1827C24.1073 33.2653 23.9464 33.3509 23.7896 33.4395C21.8332 34.5443 20.1489 36.3416 20.1489 38.711C20.1489 39.547 20.3586 40.3117 20.7159 41C17.9643 40.4323 16 38.941 16 37.1906C16 34.9513 19.2144 33.1361 23.1795 33.1361C23.5509 33.1361 23.9156 33.152 24.2718 33.1827Z" fill="#F0EEFC"/>
<path d="M39.4607 23.228C39.8862 23.0803 40.3438 23 40.8203 23C43.0861 23 44.9229 24.8152 44.9229 27.0544C44.9229 29.2937 43.0861 31.1089 40.8203 31.1089C39.7936 31.1089 38.855 30.7362 38.1354 30.1201C39.2049 28.8873 39.851 27.2853 39.851 25.534C39.851 24.7264 39.7136 23.9505 39.4607 23.228Z" fill="#F0EEFC"/>
<path d="M39.7282 33.1827C39.8927 33.2653 40.0536 33.3509 40.2104 33.4395C42.1668 34.5443 43.8511 36.3416 43.8511 38.711C43.8511 39.547 43.6414 40.3117 43.2841 41C46.0357 40.4323 48 38.941 48 37.1906C48 34.9513 44.7856 33.1361 40.8205 33.1361C40.4491 33.1361 40.0844 33.152 39.7282 33.1827Z" fill="#F0EEFC"/>
</svg>
