<svg width="64" height="64" viewBox="0 0 64 64" fill="none" xmlns="http://www.w3.org/2000/svg">
<rect width="64" height="64" rx="32" fill="#F0EEFC"/>
<rect x="8" y="8" width="48" height="48" rx="24" fill="#433FB5"/>
<path d="M25.4734 36.2801C26.9534 36.8668 28 38.3112 28 40C28 42.2092 26.2091 44 24 44C21.7909 44 20 42.2092 20 40C20 38.2584 21.1131 36.7767 22.6667 36.2276V27.7724C21.1131 27.2233 20 25.7416 20 24C20 21.7909 21.7909 20 24 20C26.2091 20 28 21.7909 28 24C28 25.7416 26.8869 27.2233 25.3333 27.7724V31.9995C26.4475 31.1625 27.8325 30.6667 29.3333 30.6667H34.6667C36.5113 30.6667 38.0643 29.418 38.5265 27.7199C37.0465 27.1332 36 25.6888 36 24C36 21.7909 37.7908 20 40 20C42.2092 20 44 21.7909 44 24C44 25.7776 42.8404 27.2844 41.2365 27.8052C40.6963 30.9447 37.9604 33.3333 34.6667 33.3333H29.3333C27.4887 33.3333 25.9357 34.582 25.4734 36.2801Z" fill="#F0EEFC"/>
</svg>
