<svg width="64" height="64" viewBox="0 0 64 64" fill="none" xmlns="http://www.w3.org/2000/svg">
<rect width="64" height="64" rx="32" fill="#2C2B78"/>
<rect x="8" y="8" width="48" height="48" rx="24" fill="#433FB5"/>
<path fill-rule="evenodd" clip-rule="evenodd" d="M30.7273 20H33.2727C34.6786 20 35.8182 21.0745 35.8182 22.4C35.8182 23.9168 37.4411 24.8812 38.7733 24.156L38.9086 24.0823C40.1261 23.4196 41.6829 23.8129 42.3858 24.9608L43.6585 27.0392C44.3615 28.1871 43.9443 29.655 42.7268 30.3177C41.394 31.0432 41.394 32.9568 42.7268 33.6823C43.9443 34.345 44.3615 35.8129 43.6585 36.9608L42.3858 39.0392C41.6829 40.1871 40.1261 40.5804 38.9086 39.9177L38.7733 39.844C37.4411 39.1188 35.8182 40.0832 35.8182 41.6C35.8182 42.9255 34.6786 44 33.2727 44H30.7273C29.3214 44 28.1818 42.9255 28.1818 41.6C28.1818 40.0832 26.5589 39.1188 25.2267 39.844L25.0914 39.9177C23.8739 40.5804 22.3171 40.1871 21.6142 39.0392L20.3415 36.9608C19.6385 35.8129 20.0557 34.3451 21.2732 33.6823C22.606 32.9568 22.606 31.0432 21.2732 30.3177C20.0557 29.6549 19.6385 28.1871 20.3415 27.0392L21.6142 24.9608C22.3171 23.8129 23.8739 23.4196 25.0914 24.0823L25.2267 24.156C26.5589 24.8812 28.1818 23.9168 28.1818 22.4C28.1818 21.0745 29.3214 20 30.7273 20ZM32 36C34.2092 36 36 34.2091 36 32C36 29.7909 34.2092 28 32 28C29.7909 28 28 29.7909 28 32C28 34.2091 29.7909 36 32 36Z" fill="#F0EEFC"/>
</svg>
