<svg width="64" height="64" viewBox="0 0 64 64" fill="none" xmlns="http://www.w3.org/2000/svg">
<rect width="64" height="64" rx="32" fill="#2C2B78"/>
<rect x="8" y="8" width="48" height="48" rx="24" fill="#433FB5"/>
<path d="M27.505 38.2857C27.1654 36.8313 25.6343 35.6408 25.0055 34.8562C23.7512 33.2911 23.001 31.3046 23.001 29.1429C23.001 24.0934 27.0944 20 32.1438 20C37.1933 20 41.2867 24.0934 41.2867 29.1429C41.2867 31.3057 40.5356 33.2931 39.2802 34.8587C38.6517 35.6423 37.1219 36.8315 36.7827 38.2857H27.505ZM36.7153 40.5714V41.7143C36.7153 42.9767 35.6919 44 34.4295 44H29.8581C28.5958 44 27.5724 42.9767 27.5724 41.7143V40.5714H36.7153ZM33.2867 29.1483V24.5714L28.1438 31.4341H31.001V36.0055L36.1438 29.1483H33.2867Z" fill="#F0EEFC"/>
</svg>
