<svg width="64" height="64" viewBox="0 0 64 64" fill="none" xmlns="http://www.w3.org/2000/svg">
<rect width="64" height="64" rx="32" fill="#2C2B78"/>
<rect x="8" y="8" width="48" height="48" rx="24" fill="#433FB5"/>
<path d="M42.6364 39.909H45V42.2726H19V39.909H21.3636C21.3636 34.5908 21.3636 29.2727 21.3636 23.9546C21.3636 22.3228 22.6864 21 24.3182 21C27.0738 21 29.8293 21 32.5849 21C34.2201 21 35.5442 22.3283 35.5418 23.9635C35.534 29.2786 35.5455 34.5939 35.5455 39.909H37.9091V28.0909C38.4978 28.0909 39.0864 28.0909 39.6751 28.0909C41.3106 28.0909 42.6349 29.4196 42.6334 31.0551C42.6308 34.0064 42.6364 36.9577 42.6364 39.909ZM26.0909 30.4545V32.8181H30.8182V30.4545H26.0909ZM26.0909 25.7272V28.0909H30.8182V25.7272H26.0909Z" fill="#F0EEFC"/>
</svg>
