<svg width="64" height="64" viewBox="0 0 64 64" fill="none" xmlns="http://www.w3.org/2000/svg">
<rect width="64" height="64" rx="32" fill="#F0EEFC"/>
<rect x="8" y="8" width="48" height="48" rx="24" fill="#433FB5"/>
<path fill-rule="evenodd" clip-rule="evenodd" d="M40.9939 20.0245C42.7549 19.7942 44.2062 21.2455 43.9759 23.0066C43.6392 25.5807 42.7149 29.9537 40.1009 32.7721C39.2692 33.6689 38.2646 34.4974 37.2315 35.2336L37.5333 37.3467C37.6183 37.9417 37.4182 38.542 36.9932 38.967L33.5211 42.4392C32.4084 43.5519 30.5029 42.9168 30.2804 41.359L29.8175 38.1183L29.8188 38.1181C29.5232 37.975 29.249 37.7814 29.0102 37.5426L26.4581 34.9904C26.2192 34.7515 26.0256 34.4774 25.8825 34.1817L25.8823 34.1831L22.6417 33.7202C21.0839 33.4976 20.4487 31.5922 21.5614 30.4795L25.0336 27.0073C25.4586 26.5823 26.0589 26.3822 26.6539 26.4672L28.767 26.769C29.5031 25.7359 30.3317 24.7313 31.2284 23.8996C34.0468 21.2856 38.4198 20.3612 40.9939 20.0245ZM24.262 35.109C24.5816 35.4286 24.5816 35.9468 24.262 36.2664L22.7188 37.8096C22.3992 38.1292 21.8811 38.1292 21.5614 37.8096C21.2418 37.49 21.2418 36.9718 21.5614 36.6522L23.1046 35.109C23.4242 34.7894 23.9424 34.7894 24.262 35.109ZM26.5768 37.4238C26.8964 37.7434 26.8964 38.2616 26.5768 38.5812L23.4904 41.6676C23.1708 41.9872 22.6526 41.9872 22.333 41.6676C22.0134 41.348 22.0134 40.8298 22.333 40.5102L25.4194 37.4238C25.739 37.1042 26.2572 37.1042 26.5768 37.4238ZM28.8915 39.7386C29.2112 40.0582 29.2111 40.5764 28.8915 40.896L27.3484 42.4392C27.0288 42.7588 26.5106 42.7588 26.191 42.4392C25.8714 42.1196 25.8714 41.6014 26.191 41.2818L27.7342 39.7386C28.0538 39.419 28.5719 39.419 28.8915 39.7386ZM34.485 29.5144C33.6327 28.6621 33.6327 27.2802 34.485 26.428C35.3373 25.5757 36.7191 25.5757 37.5714 26.428C38.4236 27.2802 38.4236 28.6621 37.5714 29.5144C36.7191 30.3666 35.3373 30.3666 34.485 29.5144Z" fill="#F0EEFC"/>
</svg>
