<svg width="64" height="64" viewBox="0 0 64 64" fill="none" xmlns="http://www.w3.org/2000/svg">
<rect width="64" height="64" rx="32" fill="#F0EEFC"/>
<rect x="8" y="8" width="48" height="48" rx="24" fill="#433FB5"/>
<path fill-rule="evenodd" clip-rule="evenodd" d="M32.85 19.05C32.85 18.4701 32.3799 18 31.8 18C31.2201 18 30.75 18.4701 30.75 19.05V22.2H27.6C24.5072 22.2 22 24.7072 22 27.8V36.2C22 41.6124 26.3876 46 31.8 46C37.2124 46 41.6 41.6124 41.6 36.2V27.8C41.6 24.7072 39.0928 22.2 36 22.2H32.85V19.05ZM31.8 25.35C32.3799 25.35 32.85 25.8201 32.85 26.4V29.2C32.85 29.7799 32.3799 30.25 31.8 30.25C31.2201 30.25 30.75 29.7799 30.75 29.2V26.4C30.75 25.8201 31.2201 25.35 31.8 25.35Z" fill="#F0EEFC"/>
</svg>
