<svg width="64" height="64" viewBox="0 0 64 64" fill="none" xmlns="http://www.w3.org/2000/svg">
<rect width="64" height="64" rx="32" fill="#F0EEFC"/>
<rect x="8" y="8" width="48" height="48" rx="24" fill="#433FB5"/>
<path d="M34.6699 20.2297C34.667 20.128 34.5561 20.0619 34.4688 20.114C29.8483 22.8743 29.9339 29.7988 29.9891 31.0535C29.9932 31.1481 29.9037 31.2149 29.818 31.1745C29.2842 30.9231 27.7548 29.9764 27.6703 27.3537C27.667 27.252 27.5572 27.1865 27.4696 27.2385C24.7944 28.824 23 31.7525 23 35C23 39.9706 27.1787 44 32.3333 44C37.488 44 41.6667 39.9706 41.6667 35C41.6666 27.7788 34.8404 26.2259 34.6699 20.2297Z" fill="#F0EEFC"/>
</svg>
