<svg width="64" height="64" viewBox="0 0 64 64" fill="none" xmlns="http://www.w3.org/2000/svg">
<rect width="64" height="64" rx="32" fill="#F0EEFC"/>
<rect x="8" y="8" width="48" height="48" rx="24" fill="#433FB5"/>
<path d="M29.7046 21.8167C30.6434 19.8389 33.3559 19.8389 34.2947 21.8167L35.9172 25.2347C36.29 26.0201 37.0106 26.5644 37.8442 26.6904L41.4722 27.2385C43.5715 27.5556 44.4097 30.2378 42.8907 31.7773L40.2654 34.4379C39.6622 35.0492 39.387 35.93 39.5294 36.7932L40.1491 40.55C40.5077 42.7237 38.3132 44.3814 36.4356 43.3551L33.1906 41.5814C32.445 41.1738 31.5543 41.1738 30.8087 41.5814L27.5637 43.3551C25.6861 44.3814 23.4917 42.7237 23.8503 40.55L24.47 36.7932C24.6124 35.93 24.3371 35.0492 23.7339 34.4379L21.1087 31.7773C19.5897 30.2378 20.4279 27.5556 22.5271 27.2385L26.1551 26.6904C26.9887 26.5644 27.7093 26.0201 28.0821 25.2347L29.7046 21.8167Z" fill="#F0EEFC"/>
</svg>
