<svg width="136" height="32" viewBox="0 0 136 32" fill="none" xmlns="http://www.w3.org/2000/svg">
<g clip-path="url(#clip0_462_615)">
<path fill-rule="evenodd" clip-rule="evenodd" d="M6 0.666667C6 0.298477 5.70152 0 5.33333 0H0.666667C0.298477 0 0 0.298477 0 0.666667V20C0 29.96 2.03999 32 12 32C21.96 32 24 29.96 24 20C24 10.04 21.96 8 12 8C9.54993 8 7.5791 8.12344 6 8.45786V0.666667ZM6 20C6 28.3 7.02 30 12 30C16.98 30 18 28.3 18 20C18 11.7 16.98 10 12 10C7.02 10 6 11.7 6 20ZM28 20C28 10.04 30.04 8 40 8C49.96 8 52 10.04 52 20V31.3333C52 31.7015 51.7015 32 51.3333 32H46.6667C46.2985 32 46 31.7015 46 31.3333V29.9488C44.5039 31.6752 42.2892 32 40 32C30.04 32 28 29.96 28 20ZM46 20C46 11.7 44.98 10 40 10C35.02 10 34 11.7 34 20C34 28.3 35.02 30 40 30C44.98 30 46 28.3 46 20ZM124 8C114.04 8 112 10.04 112 20C112 29.96 114.04 32 124 32C126.289 32 128.504 31.6752 130 29.9488V31.3333C130 31.7015 130.298 32 130.667 32H135.333C135.702 32 136 31.7015 136 31.3333V20C136 10.04 133.96 8 124 8ZM124 10C128.98 10 130 11.7 130 20C130 28.3 128.98 30 124 30C119.02 30 118 28.3 118 20C118 11.7 119.02 10 124 10ZM84 20C84 10.04 86.04 8 96 8C104.126 8 106.98 9.35796 107.756 15.2673C107.807 15.6578 107.498 16 107.104 16H102.488C102.141 16 101.853 15.7307 101.816 15.3853C101.35 11.0275 99.8718 10 96 10C91.02 10 90 11.7 90 20C90 28.3 91.02 30 96 30C99.8718 30 101.35 28.9725 101.816 24.6147C101.853 24.2693 102.141 24 102.488 24H107.104C107.498 24 107.807 24.3422 107.756 24.7327C106.98 30.642 104.126 32 96 32C86.04 32 84 29.96 84 20ZM68 8C58.04 8 56 10.04 56 20C56 29.96 58.04 32 68 32C76.1262 32 78.9803 30.642 79.7558 24.7327C79.8071 24.3422 79.4981 24 79.1042 24H74.4884C74.141 24 73.853 24.2693 73.8161 24.6147C73.3499 28.9725 71.8718 30 68 30C63.02 30 62 28.3 62 20C62 11.7 63.02 10 68 10C71.8718 10 73.3499 11.0276 73.8161 15.3853C73.853 15.7307 74.141 16 74.4884 16H79.1042C79.4981 16 79.8071 15.6578 79.7558 15.2673C78.9803 9.35796 76.1262 8 68 8Z" fill="#141345"/>
</g>
<defs>
<clipPath id="clip0_462_615">
<rect width="136" height="32" fill="white"/>
</clipPath>
</defs>
</svg>
