<svg width="85" height="20" viewBox="0 0 85 20" fill="none" xmlns="http://www.w3.org/2000/svg">
<g clip-path="url(#clip0_509_903)">
<g clip-path="url(#clip1_509_903)">
<path fill-rule="evenodd" clip-rule="evenodd" d="M3.75 0.416667C3.75 0.186548 3.56345 0 3.33333 0H0.416667C0.186548 0 0 0.186548 0 0.416667V12.5C0 18.725 1.27499 20 7.5 20C13.725 20 15 18.725 15 12.5C15 6.275 13.725 5 7.5 5C5.96871 5 4.73694 5.07715 3.75 5.28616V0.416667ZM3.75 12.5C3.75 17.6875 4.3875 18.75 7.5 18.75C10.6125 18.75 11.25 17.6875 11.25 12.5C11.25 7.3125 10.6125 6.25 7.5 6.25C4.3875 6.25 3.75 7.3125 3.75 12.5ZM17.5 12.5C17.5 6.275 18.775 5 25 5C31.225 5 32.5 6.275 32.5 12.5V19.5833C32.5 19.8134 32.3134 20 32.0833 20H29.1667C28.9366 20 28.75 19.8134 28.75 19.5833V18.718C27.8149 19.797 26.4307 20 25 20C18.775 20 17.5 18.725 17.5 12.5ZM28.75 12.5C28.75 7.3125 28.1125 6.25 25 6.25C21.8875 6.25 21.25 7.3125 21.25 12.5C21.25 17.6875 21.8875 18.75 25 18.75C28.1125 18.75 28.75 17.6875 28.75 12.5ZM77.5 5C71.275 5 70 6.275 70 12.5C70 18.725 71.275 20 77.5 20C78.9306 20 80.315 19.797 81.25 18.718V19.5833C81.25 19.8134 81.4363 20 81.6669 20H84.5831C84.8137 20 85 19.8134 85 19.5833V12.5C85 6.275 83.725 5 77.5 5ZM77.5 6.25C80.6125 6.25 81.25 7.3125 81.25 12.5C81.25 17.6875 80.6125 18.75 77.5 18.75C74.3875 18.75 73.75 17.6875 73.75 12.5C73.75 7.3125 74.3875 6.25 77.5 6.25ZM52.5 12.5C52.5 6.275 53.775 5 60 5C65.0788 5 66.8625 5.84872 67.3475 9.54206C67.3794 9.78613 67.1862 10 66.94 10H64.055C63.8381 10 63.6581 9.83169 63.635 9.61581C63.3438 6.89219 62.4199 6.25 60 6.25C56.8875 6.25 56.25 7.3125 56.25 12.5C56.25 17.6875 56.8875 18.75 60 18.75C62.4199 18.75 63.3438 18.1078 63.635 15.3842C63.6581 15.1683 63.8381 15 64.055 15H66.94C67.1862 15 67.3794 15.2139 67.3475 15.4579C66.8625 19.1513 65.0788 20 60 20C53.775 20 52.5 18.725 52.5 12.5ZM42.5 5C36.275 5 35 6.275 35 12.5C35 18.725 36.275 20 42.5 20C47.5789 20 49.3627 19.1513 49.8474 15.4579C49.8794 15.2139 49.6863 15 49.4401 15H46.5553C46.3381 15 46.1581 15.1683 46.1351 15.3842C45.8437 18.1078 44.9199 18.75 42.5 18.75C39.3875 18.75 38.75 17.6875 38.75 12.5C38.75 7.3125 39.3875 6.25 42.5 6.25C44.9199 6.25 45.8437 6.89225 46.1351 9.61581C46.1581 9.83169 46.3381 10 46.5553 10H49.4401C49.6863 10 49.8794 9.78613 49.8474 9.54206C49.3627 5.84872 47.5789 5 42.5 5Z" fill="#F0EEFC"/>
</g>
</g>
<defs>
<clipPath id="clip0_509_903">
<rect width="85" height="20" fill="white"/>
</clipPath>
<clipPath id="clip1_509_903">
<rect width="85" height="20" fill="white"/>
</clipPath>
</defs>
</svg>
