<svg width="56" height="56" viewBox="0 0 56 56" fill="none" xmlns="http://www.w3.org/2000/svg">
<g clip-path="url(#clip0_184_11736)">
<path fill-rule="evenodd" clip-rule="evenodd" d="M28 56C43.464 56 56 43.464 56 28C56 12.536 43.464 0 28 0C12.536 0 0 12.536 0 28C0 43.464 12.536 56 28 56ZM39.437 37.345V28.6784C39.437 24.0361 36.9581 21.8757 33.6505 21.8757C30.9816 21.8757 29.7892 23.3447 29.1215 24.3732V22.2309H24.0961C24.1637 23.6496 24.0961 37.345 24.0961 37.345H29.1223V28.9043C29.1223 28.4524 29.1565 28.0026 29.2891 27.6795C29.6528 26.7756 30.479 25.8413 31.8672 25.8413C33.6856 25.8413 34.4124 27.2275 34.4124 29.2587V37.345H39.437ZM29.1215 24.3732V24.4222H29.0885C29.0935 24.4141 29.0994 24.4056 29.1053 24.3971C29.1109 24.389 29.1165 24.3809 29.1215 24.3732ZM15.995 17.5561C15.995 16.0727 17.1194 14.945 18.8388 14.945C20.5587 14.945 21.6155 16.0727 21.6484 17.5561C21.6484 19.007 20.5587 20.1689 18.8059 20.1689H18.7725C17.0872 20.1689 15.995 19.007 15.995 17.5561ZM21.3177 37.345H16.2936V22.2309H21.3177V37.345Z" fill="#F0EEFC"/>
</g>
<defs>
<clipPath id="clip0_184_11736">
<rect width="56" height="56" fill="white"/>
</clipPath>
</defs>
</svg>
