<svg width="64" height="64" viewBox="0 0 64 64" fill="none" xmlns="http://www.w3.org/2000/svg">
<g clip-path="url(#clip0_120_7107)">
<path fill-rule="evenodd" clip-rule="evenodd" d="M32 64C49.6731 64 64 49.6731 64 32C64 14.3269 49.6731 0 32 0C14.3269 0 0 14.3269 0 32C0 49.6731 14.3269 64 32 64ZM45.0709 42.68V32.7753C45.0709 27.4698 42.2378 25.0008 38.4577 25.0008C35.4075 25.0008 34.0448 26.6796 33.2817 27.855V25.4067H27.5384C27.6156 27.0282 27.5384 42.68 27.5384 42.68H33.2826V33.0335C33.2826 32.5171 33.3217 32.0029 33.4733 31.6337C33.8889 30.6007 34.8331 29.5329 36.4197 29.5329C38.4978 29.5329 39.3285 31.1172 39.3285 33.4385V42.68H45.0709ZM33.2817 27.855V27.911H33.244C33.2497 27.9018 33.2565 27.8922 33.2632 27.8824C33.2696 27.8732 33.276 27.8639 33.2817 27.855ZM18.28 20.0641C18.28 18.3688 19.565 17.08 21.5301 17.08C23.4957 17.08 24.7034 18.3688 24.7411 20.0641C24.7411 21.7222 23.4957 23.0502 21.4924 23.0502H21.4543C19.5283 23.0502 18.28 21.7222 18.28 20.0641ZM24.3631 42.68H18.6212V25.4067H24.3631V42.68Z" fill="#433FB5"/>
</g>
<defs>
<clipPath id="clip0_120_7107">
<rect width="64" height="64" fill="white"/>
</clipPath>
</defs>
</svg>
