<svg width="56" height="56" viewBox="0 0 56 56" fill="none" xmlns="http://www.w3.org/2000/svg">
<g clip-path="url(#clip0_184_11738)">
<path fill-rule="evenodd" clip-rule="evenodd" d="M28 56C43.464 56 56 43.464 56 28C56 12.536 43.464 0 28 0C12.536 0 0 12.536 0 28C0 43.464 12.536 56 28 56ZM39.0671 16.236C36.1856 13.351 32.3534 11.7615 28.2706 11.76C19.8585 11.76 13.0114 18.6061 13.0084 27.0212C13.0073 29.7112 13.7101 32.337 15.0454 34.6511L12.88 42.56L20.9707 40.4379C23.1998 41.654 25.71 42.2947 28.264 42.2957H28.2701C36.6816 42.2957 43.5287 35.4486 43.5323 27.0339C43.5348 22.9552 41.949 19.121 39.0671 16.236ZM28.2711 39.7178H28.266C25.9895 39.7168 23.7569 39.1051 21.8095 37.9496L21.3461 37.6746L16.5447 38.934L17.826 34.2528L17.5245 33.7726C16.2549 31.7528 15.5842 29.4189 15.5852 27.0217C15.5878 20.0274 21.2788 14.3374 28.2757 14.3374C31.6639 14.3384 34.8488 15.66 37.2439 18.0576C39.639 20.4552 40.9569 23.6422 40.9559 27.0319C40.9534 34.0272 35.2628 39.7178 28.2711 39.7178ZM35.2288 30.2169C34.8473 30.026 32.9727 29.1036 32.6229 28.9764C32.2735 28.849 32.0189 28.7853 31.7648 29.1673C31.5106 29.5493 30.7798 30.4079 30.5573 30.6625C30.3348 30.9172 30.1122 30.9487 29.7312 30.7578C29.6689 30.7265 29.5838 30.6897 29.4789 30.6441C28.9419 30.4112 27.8827 29.9519 26.6645 28.8648C25.5308 27.8534 24.7654 26.6047 24.5428 26.2232C24.3203 25.8413 24.5189 25.6351 24.7099 25.4451C24.8244 25.3309 24.9558 25.1708 25.0873 25.0107C25.1528 24.9309 25.2184 24.851 25.2818 24.7769C25.4433 24.5882 25.5136 24.4449 25.6089 24.2507C25.626 24.2159 25.6439 24.1795 25.6632 24.1409C25.7905 23.8862 25.7269 23.6636 25.6316 23.4727C25.568 23.3451 25.2066 22.4654 24.8788 21.6677C24.7159 21.271 24.5613 20.8947 24.4558 20.6412C24.1824 19.9847 23.9054 19.9864 23.6831 19.9877C23.6536 19.988 23.6251 19.9881 23.5976 19.9867C23.3756 19.9755 23.1209 19.9735 22.8668 19.9735C22.6127 19.9735 22.1997 20.0687 21.8498 20.4507C21.8273 20.4753 21.8021 20.5022 21.7747 20.5314C21.3773 20.9557 20.515 21.8763 20.515 23.6321C20.515 25.5046 21.8747 27.3139 22.0709 27.575L22.0724 27.5769C22.0848 27.5934 22.107 27.6253 22.1386 27.6708C22.5939 28.3238 25.0104 31.7907 28.5869 33.3352C29.497 33.7283 30.2069 33.9626 30.761 34.1383C31.6746 34.4286 32.5058 34.3878 33.1632 34.2895C33.896 34.18 35.4193 33.3673 35.737 32.4765C36.0548 31.5858 36.0548 30.822 35.9596 30.663C35.8828 30.5344 35.7025 30.4473 35.4355 30.3181C35.3714 30.2872 35.3025 30.2538 35.2288 30.2169Z" fill="#F0EEFC"/>
</g>
<defs>
<clipPath id="clip0_184_11738">
<rect width="56" height="56" fill="white"/>
</clipPath>
</defs>
</svg>
