<svg width="64" height="64" viewBox="0 0 64 64" fill="none" xmlns="http://www.w3.org/2000/svg">
<g clip-path="url(#clip0_120_7109)">
<path fill-rule="evenodd" clip-rule="evenodd" d="M32 64C49.6731 64 64 49.6731 64 32C64 14.3269 49.6731 0 32 0C14.3269 0 0 14.3269 0 32C0 49.6731 14.3269 64 32 64ZM44.6481 18.5554C41.355 15.2582 36.9753 13.4417 32.3092 13.44C22.6954 13.44 14.8701 21.2641 14.8667 30.8814C14.8655 33.9557 15.6687 36.9565 17.1948 39.6012L14.72 48.64L23.9665 46.2147C26.514 47.6046 29.3828 48.3368 32.3017 48.3379H32.3087C41.9219 48.3379 49.7471 40.5126 49.7512 30.8959C49.7541 26.2346 47.9417 21.8525 44.6481 18.5554ZM32.3098 45.3917H32.304C29.7023 45.3906 27.1508 44.6916 24.9251 43.3709L24.3955 43.0567L18.9082 44.496L20.3726 39.1461L20.028 38.5972C18.577 36.289 17.8105 33.6216 17.8117 30.882C17.8146 22.8885 24.3187 16.3856 32.3151 16.3856C36.1873 16.3868 39.8272 17.8971 42.5644 20.6372C45.3017 23.3774 46.8079 27.0197 46.8068 30.8936C46.8038 38.8883 40.3004 45.3917 32.3098 45.3917ZM40.2615 34.5336C39.8255 34.3154 37.6831 33.2613 37.2833 33.1158C36.884 32.9703 36.593 32.8975 36.3026 33.3341C36.0122 33.7706 35.177 34.7519 34.9226 35.0429C34.6683 35.3339 34.4139 35.37 33.9786 35.1517C33.9073 35.116 33.8101 35.0739 33.6902 35.0219C33.0764 34.7556 31.8659 34.2307 30.4737 32.9883C29.178 31.8324 28.3033 30.4054 28.049 29.9694C27.7946 29.5329 28.0216 29.2972 28.2399 29.0801C28.3707 28.9496 28.521 28.7666 28.6712 28.5837C28.746 28.4924 28.821 28.4012 28.8934 28.3165C29.0781 28.1008 29.1584 27.937 29.2673 27.7151C29.2868 27.6753 29.3073 27.6337 29.3294 27.5896C29.4749 27.2986 29.4022 27.0442 29.2933 26.8259C29.2206 26.6801 28.8076 25.6747 28.433 24.7631C28.2467 24.3098 28.07 23.8796 27.9494 23.5899C27.637 22.8397 27.3205 22.8416 27.0664 22.8431C27.0327 22.8434 27.0001 22.8436 26.9687 22.842C26.7149 22.8292 26.4239 22.8269 26.1335 22.8269C25.8431 22.8269 25.3711 22.9357 24.9712 23.3722C24.9455 23.4004 24.9167 23.4311 24.8854 23.4645C24.4312 23.9494 23.4458 25.0015 23.4458 27.0081C23.4458 29.1482 24.9997 31.2159 25.2239 31.5143L25.2256 31.5164C25.2397 31.5354 25.2651 31.5718 25.3013 31.6237C25.8216 32.37 28.5834 36.3322 32.6708 38.0973C33.7108 38.5466 34.5222 38.8144 35.1554 39.0152C36.1996 39.3469 37.1494 39.3004 37.9008 39.188C38.7383 39.0629 40.4792 38.134 40.8423 37.116C41.2055 36.0981 41.2055 35.2251 41.0967 35.0435C41.0089 34.8965 40.8029 34.7969 40.4977 34.6493C40.4245 34.614 40.3457 34.5758 40.2615 34.5336Z" fill="#433FB5"/>
</g>
<defs>
<clipPath id="clip0_120_7109">
<rect width="64" height="64" fill="white"/>
</clipPath>
</defs>
</svg>
